<svg viewBox="0 0 22 24" fill="#878787" xmlns="http://www.w3.org/2000/svg">
    <path fill-rule="evenodd" clip-rule="evenodd" d="M15.881 1.92565C14.6607 0.684404 12.9385 0 10.929 0C8.9194 0 7.19725 0.684404 5.97696 1.92565C4.75762 3.16593 4.08825 4.91231 4.08825 6.94737C4.08825 9.68716 5.28114 11.4531 6.7575 12.5131C7.04443 12.719 7.34096 12.8977 7.6401 13.0518C5.9902 13.5052 4.65053 14.2955 3.55981 15.2759C1.83513 16.8259 0.766182 18.8202 0.0460054 20.6059C-0.0844535 20.9294 0.0720265 21.2973 0.395534 21.4278C0.719029 21.5583 1.08702 21.4018 1.21748 21.0783C1.90296 19.3786 2.88196 17.5834 4.40415 16.2153C5.91106 14.8611 7.98339 13.8947 10.929 13.8947C13.6826 13.8947 15.6706 14.7392 17.1462 15.951C18.6342 17.173 19.6363 18.7978 20.3543 20.404C20.8333 21.4757 19.9926 22.7368 18.673 22.7368H4.09891C3.7501 22.7368 3.46733 23.0197 3.46733 23.3684C3.46733 23.7172 3.7501 24 4.09891 24H18.673C20.7599 24 22.4185 21.9269 21.5075 19.8887C20.7452 18.1834 19.6427 16.3666 17.9479 14.9749C16.942 14.1488 15.7394 13.4826 14.2994 13.0746C15.0696 12.6488 15.7027 12.0836 16.2064 11.4431C17.2964 10.0573 17.7697 8.33704 17.7697 6.94737C17.7697 4.91231 17.1004 3.16593 15.881 1.92565ZM14.9803 2.8112C15.9341 3.78144 16.5066 5.19296 16.5066 6.94737C16.5066 8.08401 16.1106 9.52168 15.2136 10.6622C14.3338 11.7808 12.961 12.6316 10.929 12.6316C10.1071 12.6316 8.68925 12.345 7.49423 11.4869C6.33171 10.6522 5.35141 9.26024 5.35141 6.94737C5.35141 5.19296 5.92386 3.78144 6.87772 2.8112C7.83063 1.84191 9.21296 1.26316 10.929 1.26316C12.645 1.26316 14.0274 1.84191 14.9803 2.8112Z"></path>
</svg>