<svg viewBox="0 0 30 30" fill="#878787" xmlns="http://www.w3.org/2000/svg">
    <path d="M9.20001 20.2V21C9.20001 21.2208 9.37922 21.4 9.6 21.4C9.82078 21.4 9.99998 21.2208 9.99998 21V20.2C9.99998 19.9793 9.82078 19.8 9.6 19.8C9.37922 19.8 9.20001 19.9793 9.20001 20.2Z"></path>
    <path d="M25.6 26.1999H25.2V13.5999C25.2 13.3792 25.0208 13.2 24.8 13.2C24.5793 13.2 24.4001 13.3792 24.4001 13.5999V26.1999H3.59998V13.5999C3.59998 13.3792 3.42078 13.2 3.2 13.2C2.97922 13.2 2.80002 13.3792 2.80002 13.5999V26.1999H2.39998C2.1792 26.1999 2 26.3791 2 26.5999C2 26.8207 2.1792 27 2.39998 27H25.6C25.8207 27 26 26.8207 26 26.6C26 26.3792 25.8208 26.1999 25.6 26.1999Z"></path>
    <path d="M11.2 25.4C11.4208 25.4 11.6 25.2208 11.6 25V15.4C11.6 15.1792 11.4208 15 11.2 15H5.6C5.37922 15 5.20001 15.1792 5.20001 15.4V25C5.20001 25.2208 5.37922 25.4 5.6 25.4C5.82078 25.4 5.99998 25.2208 5.99998 25V15.8H10.8V25C10.8 25.2208 10.9792 25.4 11.2 25.4Z"></path>
    <path d="M18.6828 17.5172C18.5264 17.3608 18.2736 17.3608 18.1172 17.5172C17.9608 17.6736 17.9608 17.9264 18.1172 18.0828L19.7172 19.6828C19.7952 19.7608 19.8976 19.7999 20 19.7999C20.1024 19.7999 20.2048 19.7608 20.2828 19.6828C20.4392 19.5263 20.4392 19.2735 20.2828 19.1172L18.6828 17.5172Z"></path>
    <path fill-rule="evenodd" clip-rule="evenodd" d="M4.00002 3H24C25.1028 3 26 3.89719 26.0001 5.00002V12.1597C26.0001 12.28 25.9461 12.3937 25.8533 12.4696C25.7601 12.5456 25.6385 12.576 25.5205 12.5516C24.8817 12.422 24.3433 12.0408 24.0005 11.5244C23.5705 12.1724 22.8341 12.6 22.0001 12.6C21.1664 12.6 20.4305 12.1728 20 11.5252C19.5696 12.1728 18.8336 12.6 18 12.6C17.1664 12.6 16.4304 12.1728 16 11.5252C15.5696 12.1728 14.8336 12.6 14 12.6C13.1664 12.6 12.4304 12.1728 12.0001 11.5252C11.5697 12.1727 10.8337 12.6 10.0001 12.6C9.16644 12.6 8.43045 12.1727 8.00005 11.5252C7.56964 12.1727 6.83366 12.6 6.00003 12.6C5.16603 12.6 4.42963 12.1724 3.99964 11.5244C3.65684 12.0408 3.11844 12.422 2.47962 12.5516C2.36239 12.5756 2.23963 12.5452 2.14681 12.4696C2.054 12.3936 2 12.28 2 12.1596V5.00002C2 3.89719 2.89719 3 4.00002 3ZM24.4 10.2C24.4 10.782 24.7172 11.3056 25.2 11.5856H25.2003V5.00002C25.2003 4.33842 24.6619 3.80002 24.0003 3.80002H4.0003C3.3387 3.80002 2.8003 4.33842 2.8003 5.00002V11.5856C3.28311 11.3056 3.60031 10.782 3.60031 10.2V5.00002C3.60031 4.77923 3.77952 4.60003 4.0003 4.60003C4.22108 4.60003 4.40028 4.77923 4.40028 5.00002V10.2C4.40028 11.0824 5.11784 11.8 6.00027 11.8C6.88264 11.8 7.60025 11.0824 7.60025 10.2V5.00002C7.60025 4.77923 7.77945 4.60003 8.00023 4.60003C8.22102 4.60003 8.40022 4.77923 8.40022 5.00002V10.2C8.40022 11.0824 9.11783 11.8 10.0002 11.8C10.8826 11.8 11.6002 11.0824 11.6002 10.2V5.00002C11.6002 4.77923 11.7794 4.60003 12.0002 4.60003C12.221 4.60003 12.4002 4.77923 12.4002 5.00002V10.2C12.4002 11.0824 13.1177 11.8 14.0001 11.8C14.8825 11.8 15.6001 11.0824 15.6001 10.2V5.00002C15.6001 4.77923 15.7793 4.60003 16.0001 4.60003C16.2209 4.60003 16.4001 4.77923 16.4001 5.00002V10.2C16.4001 11.0824 17.1177 11.8 18.0001 11.8C18.8825 11.8 19.6001 11.0824 19.6001 10.2V5.00002C19.6001 4.77923 19.7793 4.60003 20 4.60003C20.2208 4.60003 20.4 4.77923 20.4 5.00002V10.2C20.4 11.0824 21.1176 11.8 22 11.8C22.8824 11.8 23.6 11.0824 23.6 10.2V5.00002C23.6 4.77923 23.7792 4.60003 24 4.60003C24.2208 4.60003 24.4 4.77923 24.4 5.00002V10.2Z"></path>
    <path fill-rule="evenodd" clip-rule="evenodd" d="M22.8 23.4C22.8 23.6208 22.6208 23.8 22.4 23.8H12.8C12.5792 23.8 12.4 23.6208 12.4 23.4V15.4C12.4 15.1792 12.5792 15 12.8 15H22.4C22.6208 15 22.8 15.1792 22.8 15.4V23.4ZM22 15.8H13.2V23H22V15.8Z"></path>
    <path d="M20.2828 16.7172C20.1264 16.5607 19.8736 16.5607 19.7172 16.7172C19.5608 16.8736 19.5608 17.1264 19.7172 17.2828L20.5172 18.0828C20.5952 18.1608 20.6976 18.2 20.8 18.2C20.9024 18.2 21.0048 18.1608 21.0828 18.0828C21.2392 17.9264 21.2392 17.6736 21.0828 17.5172L20.2828 16.7172Z"></path>
</svg>